<?xml version="1.0" encoding="utf-8"?>
<!-- Generator: Adobe Illustrator 22.1.0, SVG Export Plug-In . SVG Version: 6.00 Build 0)  -->
<svg version="1.1" id="Слой_1" xmlns="http://www.w3.org/2000/svg" xmlns:xlink="http://www.w3.org/1999/xlink" x="0px" y="0px"
	 viewBox="0 0 100 152" enable-background="new 0 0 100 152" xml:space="preserve">
<path d="M100,1.3c0,1.4,0,2.8-0.2,4.2c0,1-0.2,2.3-0.2,3.3c-0.8,7.9-1,16.1-2.3,24c-2.1,15-6.8,29-18.3,39.7
	c-1.5,1.5-1.5,2.7-0.2,4.2c3.7,4.4,6.2,9.6,7.3,15.2c1.9,10.4,0,20.7-3.1,30.7c-0.7,1.7-2,3.1-3.7,3.8c-7.9,3.3-16,6.5-24.1,9.6
	v-8.8c-5.8,2.7-11.4,5.4-17.4,8.1c-0.6-2.7-1.5-5-1.5-7.3c0-2.5,1-4.8,1.7-7.3c-1.5-0.4-3.1-1-4.8-1.7c-5.8-2.1-11.4-4.6-15.8-9
	c-3.5-3.5-5.8-7.5-5-12.7c0.8-6.2,3.8-11.8,8.3-16.1c8.1-7.5,17.6-11.3,28.4-12.1c0.8,0,1.5-0.6,2.3-0.8c-0.5-0.7-1.1-1.4-1.9-1.9
	c-3.1-1.5-6.2-2.7-9.1-4.2C21.4,52.2,8.1,37.4,2.3,16.3c-1-3.9-1.7-7.9-2.1-11.9C0,2.9,0,1.5,0,0c4.4,2.9,8.9,6.1,13.3,9
	c3.7,2.7,7.9,5.2,11.4,8.1c10.8,9.2,19.5,20,27.6,31.5c3.7,5.2,7.3,10.2,11,15.4c0.9,1.3,2.1,2.4,3.3,3.3c0.2-0.2,0.6-0.2,0.8-0.4
	l0.6-11.3C68.9,31.9,81.3,14.8,100,1.3L100,1.3L100,1.3z M35.3,93.5c3.5,0,6.4-2.8,6.4-6.3c0-0.1,0-0.1,0-0.2c0-3.5-2.8-6.3-6.3-6.3
	S29,83.6,29,87.1c-0.2,3.3,2.3,6.2,5.6,6.5C34.9,93.5,35.1,93.5,35.3,93.5z M50.2,133v19c-2.5-1.9-4.8-4-7.1-6.3
	c-2.9-3.1-5.6-3.3-9.1-1.3c-1.9,1.1-3.9,2-6,2.7c-0.6-5-1-9.8-1.7-15c3.7,1.9,6.6,3.5,9.8,5.2c2.5,1.3,4.8,1.7,7.3-0.2
	C45.2,135.7,47.5,134.7,50.2,133L50.2,133L50.2,133z M81.1,132.2c-0.4,2.3-0.8,3.8-1.2,5.4c-0.2,0.6-0.7,1-1.2,1.3
	c-8.1,2.1-16,4-24.1,6.1c-0.6-4.4-0.6-4.6,3.1-5.6C65.4,137,72.8,134.7,81.1,132.2L81.1,132.2L81.1,132.2z"/>
</svg>
