<?xml version="1.0" encoding="utf-8"?>
<!-- Generator: Adobe Illustrator 22.1.0, SVG Export Plug-In . SVG Version: 6.00 Build 0)  -->
<svg version="1.1" id="Слой_1" xmlns="http://www.w3.org/2000/svg" xmlns:xlink="http://www.w3.org/1999/xlink" x="0px" y="0px"
	 viewBox="0 0 43.8 76.7" enable-background="new 0 0 43.8 76.7" xml:space="preserve">
<path fill="#F5F5F5" d="M21.9,39.6c10.9-0.1,19.6-8.9,19.5-19.8C41.5,9,32.8,0.1,21.9,0C11.1,0.1,2.3,9,2.4,19.8
	C2.3,30.7,11.1,39.5,21.9,39.6z M21.9,11.6c4.5-0.1,8.3,3.6,8.3,8.1c0.1,4.5-3.6,8.3-8.1,8.3c-4.5,0.1-8.3-3.6-8.3-8.1v-0.1
	C13.8,15.3,17.4,11.6,21.9,11.6L21.9,11.6z M29.8,55.8c4-0.9,7.9-2.5,11.3-4.8c2.7-1.7,3.5-5.3,1.8-8c-1.6-2.7-5.1-3.5-7.8-1.9
	c0,0-0.1,0-0.1,0.1c-8,5.1-18.3,5.1-26.3,0c-2.6-1.7-6.1-0.9-7.8,1.7c0,0,0,0.1-0.1,0.1c-1.7,2.7-0.9,6.3,1.8,8
	c3.5,2.2,7.3,3.8,11.3,4.8l-10.8,11c-2.2,2.3-2.2,5.9,0,8.2c2.2,2.2,5.8,2.3,8,0.1l0.1-0.1l10.7-10.9L32.6,75c2.2,2.2,5.8,2.3,8,0.1
	l0.1-0.1c2.2-2.3,2.2-5.9,0-8.2L29.8,55.8z"/>
</svg>
