<svg xmlns="http://www.w3.org/2000/svg" width="283.969" height="161.813" viewBox="0 0 283.969 161.813">
  <metadata><?xpacket begin="﻿" id="W5M0MpCehiHzreSzNTczkc9d"?>
<x:xmpmeta xmlns:x="adobe:ns:meta/" x:xmptk="Adobe XMP Core 5.6-c142 79.160924, 2017/07/13-01:06:39        ">
   <rdf:RDF xmlns:rdf="http://www.w3.org/1999/02/22-rdf-syntax-ns#">
      <rdf:Description rdf:about=""/>
   </rdf:RDF>
</x:xmpmeta>
                                                                                                    
                                                                                                    
                                                                                                    
                                                                                                    
                                                                                                    
                                                                                                    
                                                                                                    
                                                                                                    
                                                                                                    
                                                                                                    
                                                                                                    
                                                                                                    
                                                                                                    
                                                                                                    
                                                                                                    
                                                                                                    
                                                                                                    
                                                                                                    
                                                                                                    
                                                                                                    
                           
<?xpacket end="w"?></metadata>
<defs>
    <style>
      .cls-1 {
        fill: #fff;
        fill-rule: evenodd;
      }
    </style>
  </defs>
  <path id="Shape_F_3_copy_3" data-name="Shape F_3 copy 3" class="cls-1" d="M139.041,161.777h16.973s5.125-.566,7.747-3.386c2.408-2.591,2.331-7.457,2.331-7.457s-0.331-23.025,10.238-26.378c10.422-3.308,23.8,22.012,37.986,31.748,10.726,7.363,18.875,5.471,18.875,5.471l37.926,0.033s19.837-1.506,10.43-17.1c-0.769-1.274-5.479-11.538-28.2-32.626-23.781-22.072-20.594-18.5,8.051-56.679,17.446-23.252,24.419-37.446,22.24-43.526-2.077-5.791-14.814-4.793-14.814-4.793l-42.793-.017a10.333,10.333,0,0,0-5.515,1.1c-2.294,1.373-3.768,4.936-3.768,4.936s-6.76,18.324-15.772,33.628c-19.013,32.285-26.617,33.995-29.725,31.986-7.232-4.674-5.424-18.769-5.424-28.786,0-31.29,4.746-44.336-9.243-47.713-4.639-1.12-8.058-1.861-19.929-1.982-15.238-.156-28.132.046-35.433,3.623-4.858,2.38-8.606,7.68-6.322,7.985,2.824,0.377,9.213,1.725,12.6,6.336,4.377,5.955,4.223,19.322,4.223,19.322s2.516,36.834-5.872,41.408c-5.755,3.138-13.65-3.269-30.6-32.56a264.263,264.263,0,0,1-15.243-31.9,12.674,12.674,0,0,0-3.52-4.757,17.635,17.635,0,0,0-6.558-2.647L9.351,7.049s-6.09.17-8.328,2.82C-0.967,12.227.864,17.1,0.864,17.1S32.63,91.982,68.6,129.436C101.588,163.78,139.041,161.777,139.041,161.777Z" transform="translate(-0.094 -0.188)"/>
</svg>
