<?xml version="1.0" encoding="utf-8"?>
<!-- Generator: Adobe Illustrator 22.1.0, SVG Export Plug-In . SVG Version: 6.00 Build 0)  -->
<svg version="1.1" id="Слой_1" xmlns="http://www.w3.org/2000/svg" xmlns:xlink="http://www.w3.org/1999/xlink" x="0px" y="0px"
	 viewBox="0 0 29.5 45" style="enable-background:new 0 0 29.5 45;" xml:space="preserve">
<style type="text/css">
	.st0{fill:#FFFFFF;}
</style>
<path id="zayac_copy" class="st0" d="M29.5,0.4c0,0.4,0,0.8-0.1,1.2c0,0.3-0.1,0.7-0.1,1c-0.2,2.3-0.3,4.8-0.7,7.1
	c-0.6,4.5-2,8.6-5.4,11.7c-0.4,0.3-0.4,0.8-0.2,1.1c0,0,0.1,0.1,0.1,0.1c1.1,1.3,1.8,2.8,2.1,4.5c0.4,3.1,0.1,6.2-0.9,9.1
	c-0.2,0.5-0.6,0.9-1.1,1.1c-2.3,1-4.7,1.9-7.1,2.8v-2.6c-1.7,0.8-3.4,1.6-5.1,2.4c-0.2-0.7-0.4-1.4-0.4-2.2c0.1-0.7,0.2-1.5,0.5-2.2
	c-0.4-0.1-0.9-0.3-1.4-0.5c-1.7-0.5-3.3-1.4-4.7-2.7c-1.1-0.9-1.7-2.3-1.5-3.8c0.2-1.8,1.1-3.5,2.5-4.8c2.3-2.1,5.3-3.4,8.4-3.6
	c0.2-0.1,0.5-0.1,0.7-0.2c-0.2-0.2-0.3-0.4-0.6-0.6c-0.9-0.4-1.8-0.8-2.7-1.2C6.4,15.7,2.3,10.8,0.7,4.8C0.4,3.7,0.2,2.5,0.1,1.3
	C0,0.9,0,0.4,0,0c1.3,0.9,2.6,1.8,3.9,2.7C5,3.5,6.2,4.2,7.3,5.1c3.1,2.8,5.8,5.9,8.1,9.3c1.1,1.5,2.1,3,3.2,4.6
	c0.3,0.4,0.6,0.7,1,1c0.1-0.1,0.2-0.1,0.2-0.1l0.2-3.3C20.3,9.5,24,4.4,29.5,0.4L29.5,0.4z M10.4,27.7c1,0,1.9-0.8,1.9-1.9
	c0,0,0,0,0-0.1c0-1-0.8-1.9-1.9-1.9c-1,0-1.9,0.8-1.9,1.9c-0.1,1,0.7,1.8,1.7,1.9C10.3,27.7,10.3,27.7,10.4,27.7z M14.8,39.4V45
	c-0.7-0.6-1.4-1.2-2.1-1.9c-0.6-0.8-1.8-1-2.6-0.4c0,0-0.1,0-0.1,0.1c-0.6,0.3-1.2,0.6-1.8,0.8c-0.2-1.5-0.3-2.9-0.5-4.5
	c1.1,0.6,2,1.1,2.9,1.5c0.7,0.4,1.5,0.4,2.1-0.1C13.3,40.2,14,39.9,14.8,39.4L14.8,39.4L14.8,39.4z M23.9,39.1
	c-0.1,0.7-0.2,1.1-0.4,1.6c-0.1,0.2-0.2,0.3-0.4,0.4c-2.4,0.6-4.7,1.2-7.1,1.8c-0.2-1.3-0.2-1.4,0.9-1.7
	C19.3,40.6,21.5,39.9,23.9,39.1L23.9,39.1L23.9,39.1z"/>
</svg>
