<svg version="1.1" id="logo" 
  xmlns="http://www.w3.org/2000/svg" 
  xmlns:xlink="http://www.w3.org/1999/xlink" x="0px" y="0px" viewBox="0 0 186 27" enable-background="new 0 0 186 27" xml:space="preserve">
  <path id="Logo_text" fill="black" d="M116.7,10.5c0.9,0,1.8,0,2.7-0.1c1.1-0.2,1.9-1.1,1.9-2.3c0.1-0.9-0.5-1.7-1.4-1.9C119.2,6.1,118.6,6,118,6
	c-0.7,0-1.3,0-2,0l1,4.5l0,0L116.7,10.5z M116.6,21.3c0.9,0.1,1.8,0,2.7-0.2c1.3-0.2,2.2-1.3,2.1-2.6c0.1-1.1-0.6-2.1-1.7-2.3
	c-1-0.2-2.1-0.3-3.7-0.2l1,5.3l0,0L116.6,21.3z M105.5,0c0,0,6.8,0,12.2,0c2,0,3.9,0.1,5.8,0.5c3.5,0.7,6.3,3.1,6.2,6.1
	c-0.1,3.4-2.5,6.3-6.7,6.5c4.6,0.1,7.5,3.4,7.4,6.9c-0.1,3.8-3.4,6.7-7.6,6.9c-4.2,0.1-17,0.1-17,0.1v-6h2V6h-3l1-6l0,0L105.5,0z
	 M145.3,21.5c2.6,0,3.4-3.1,3.4-7.9s-0.7-8.3-3.6-8.3c-2.6,0-3.6,3.6-3.6,8.3S142.6,21.5,145.3,21.5 M131.9,13.5
	c0-7.4,5.2-13.5,13.2-13.5c8.4,0,13.2,6,13.2,13.5s-5.2,13.4-13.2,13.5C137.3,27,131.9,20.9,131.9,13.5 M3,6.1V21H0v6h15v-6h-3
	l0-3.8c0,0,4.1,0.1,5.4,0c5.8-0.7,7.7-4.8,7.8-8.5c0-4.1-2.1-7.3-7.9-8.3C14.9,0.1,12.6,0,10.4,0C5.4,0,0,0.1,0,0.1V6L3,6.1L3,6.1z
	 M12,6.1c1-0.1,1.9,0,2.9,0.1c1,0.3,1.3,1.2,1.3,2.8c0.1,1.2-0.7,2.4-1.9,2.7c-0.8,0.1-1.5,0.1-2.3,0L12,6.1L12,6.1L12,6.1z M26,6V0
	h15v6h-3l0,15h4v-5l7,0l0,11H27v-6h2V6H26 M61.5,13l3.9,0l-1.5-7.8L61.5,13L61.5,13L61.5,13z M59.7,0l9.7,0l6.4,21H78v6l-13,0v-6
	h2.2l-0.4-2h-6.6l-0.9,2H62v6H51v-6l2,0L59.7,0L59.7,0L59.7,0z M77,6V0h14v6h-2.4l3.1,4.9L94.5,7H93V0h10v6h-1.7L95,16.2V21h3v6H83
	v-6h2v-4.9L78.1,6H76 M160,6V0h14v6h-2.1l2.8,4.6l2.9-3.6H176V0h10v6l-1.8,0l-6.2,9.7V21h3v6h-16v-6h3v-4.8L161.3,6H160"/>
</svg>
