<svg xmlns="http://www.w3.org/2000/svg" xmlns:xlink="http://www.w3.org/1999/xlink"><defs>
    <style>
      .cls-1 {
        fill: #fff;
        fill-rule: evenodd;
      }
    </style>
  </defs><symbol id="icon-back" viewBox="0 0 24 24"><path d="M16.67 0l2.83 2.829-9.339 9.175 9.339 9.167-2.83 2.829-12.17-11.996z"/></symbol><symbol id="icon-bigZayc" viewBox="0 0 100 152">
<path d="M100,1.3c0,1.4,0,2.8-0.2,4.2c0,1-0.2,2.3-0.2,3.3c-0.8,7.9-1,16.1-2.3,24c-2.1,15-6.8,29-18.3,39.7
	c-1.5,1.5-1.5,2.7-0.2,4.2c3.7,4.4,6.2,9.6,7.3,15.2c1.9,10.4,0,20.7-3.1,30.7c-0.7,1.7-2,3.1-3.7,3.8c-7.9,3.3-16,6.5-24.1,9.6
	v-8.8c-5.8,2.7-11.4,5.4-17.4,8.1c-0.6-2.7-1.5-5-1.5-7.3c0-2.5,1-4.8,1.7-7.3c-1.5-0.4-3.1-1-4.8-1.7c-5.8-2.1-11.4-4.6-15.8-9
	c-3.5-3.5-5.8-7.5-5-12.7c0.8-6.2,3.8-11.8,8.3-16.1c8.1-7.5,17.6-11.3,28.4-12.1c0.8,0,1.5-0.6,2.3-0.8c-0.5-0.7-1.1-1.4-1.9-1.9
	c-3.1-1.5-6.2-2.7-9.1-4.2C21.4,52.2,8.1,37.4,2.3,16.3c-1-3.9-1.7-7.9-2.1-11.9C0,2.9,0,1.5,0,0c4.4,2.9,8.9,6.1,13.3,9
	c3.7,2.7,7.9,5.2,11.4,8.1c10.8,9.2,19.5,20,27.6,31.5c3.7,5.2,7.3,10.2,11,15.4c0.9,1.3,2.1,2.4,3.3,3.3c0.2-0.2,0.6-0.2,0.8-0.4
	l0.6-11.3C68.9,31.9,81.3,14.8,100,1.3L100,1.3L100,1.3z M35.3,93.5c3.5,0,6.4-2.8,6.4-6.3c0-0.1,0-0.1,0-0.2c0-3.5-2.8-6.3-6.3-6.3
	S29,83.6,29,87.1c-0.2,3.3,2.3,6.2,5.6,6.5C34.9,93.5,35.1,93.5,35.3,93.5z M50.2,133v19c-2.5-1.9-4.8-4-7.1-6.3
	c-2.9-3.1-5.6-3.3-9.1-1.3c-1.9,1.1-3.9,2-6,2.7c-0.6-5-1-9.8-1.7-15c3.7,1.9,6.6,3.5,9.8,5.2c2.5,1.3,4.8,1.7,7.3-0.2
	C45.2,135.7,47.5,134.7,50.2,133L50.2,133L50.2,133z M81.1,132.2c-0.4,2.3-0.8,3.8-1.2,5.4c-0.2,0.6-0.7,1-1.2,1.3
	c-8.1,2.1-16,4-24.1,6.1c-0.6-4.4-0.6-4.6,3.1-5.6C65.4,137,72.8,134.7,81.1,132.2L81.1,132.2L81.1,132.2z"/>
</symbol><symbol id="icon-closed" viewBox="0 0 50 50">
<g id="surface1">
<path d="M 9.15625 6.3125 L 6.3125 9.15625 L 22.15625 25 L 6.21875 40.96875 L 9.03125 43.78125 L 25 27.84375 L 40.9375 43.78125 L 43.78125 40.9375 L 27.84375 25 L 43.6875 9.15625 L 40.84375 6.3125 L 25 22.15625 Z "/>
</g>
</symbol><symbol id="icon-Enter" viewBox="0 0 45 45">
<path id="Enter" d="M9,30h3v12h30V3H12v12H9V0h36v45H9V30z M21,12l12,9l1,1v1l-1,1l-12,9l-2-3l9-6H0v-3h28l-9-6
	L21,12z"/>
</symbol><symbol id="icon-facebook" viewBox="0 0 941.6 1810.5">
<path id="Blue" d="M612.5,1810.5V983.4h276.4l41.5-320.9H612.5V456.7c0-93.2,25-156.8,158.7-156.8l170.5,0.1V11.9
	C912.1,8,810.9,0,693.2,0c-245.8,0-414,149.3-414,424.9v237.6H0v320.9h279.1v827.2H612.5z"/>
</symbol><symbol id="icon-Logo" viewBox="0 0 186 27">
  <path id="Logo_text" d="M116.7,10.5c0.9,0,1.8,0,2.7-0.1c1.1-0.2,1.9-1.1,1.9-2.3c0.1-0.9-0.5-1.7-1.4-1.9C119.2,6.1,118.6,6,118,6
	c-0.7,0-1.3,0-2,0l1,4.5l0,0L116.7,10.5z M116.6,21.3c0.9,0.1,1.8,0,2.7-0.2c1.3-0.2,2.2-1.3,2.1-2.6c0.1-1.1-0.6-2.1-1.7-2.3
	c-1-0.2-2.1-0.3-3.7-0.2l1,5.3l0,0L116.6,21.3z M105.5,0c0,0,6.8,0,12.2,0c2,0,3.9,0.1,5.8,0.5c3.5,0.7,6.3,3.1,6.2,6.1
	c-0.1,3.4-2.5,6.3-6.7,6.5c4.6,0.1,7.5,3.4,7.4,6.9c-0.1,3.8-3.4,6.7-7.6,6.9c-4.2,0.1-17,0.1-17,0.1v-6h2V6h-3l1-6l0,0L105.5,0z
	 M145.3,21.5c2.6,0,3.4-3.1,3.4-7.9s-0.7-8.3-3.6-8.3c-2.6,0-3.6,3.6-3.6,8.3S142.6,21.5,145.3,21.5 M131.9,13.5
	c0-7.4,5.2-13.5,13.2-13.5c8.4,0,13.2,6,13.2,13.5s-5.2,13.4-13.2,13.5C137.3,27,131.9,20.9,131.9,13.5 M3,6.1V21H0v6h15v-6h-3
	l0-3.8c0,0,4.1,0.1,5.4,0c5.8-0.7,7.7-4.8,7.8-8.5c0-4.1-2.1-7.3-7.9-8.3C14.9,0.1,12.6,0,10.4,0C5.4,0,0,0.1,0,0.1V6L3,6.1L3,6.1z
	 M12,6.1c1-0.1,1.9,0,2.9,0.1c1,0.3,1.3,1.2,1.3,2.8c0.1,1.2-0.7,2.4-1.9,2.7c-0.8,0.1-1.5,0.1-2.3,0L12,6.1L12,6.1L12,6.1z M26,6V0
	h15v6h-3l0,15h4v-5l7,0l0,11H27v-6h2V6H26 M61.5,13l3.9,0l-1.5-7.8L61.5,13L61.5,13L61.5,13z M59.7,0l9.7,0l6.4,21H78v6l-13,0v-6
	h2.2l-0.4-2h-6.6l-0.9,2H62v6H51v-6l2,0L59.7,0L59.7,0L59.7,0z M77,6V0h14v6h-2.4l3.1,4.9L94.5,7H93V0h10v6h-1.7L95,16.2V21h3v6H83
	v-6h2v-4.9L78.1,6H76 M160,6V0h14v6h-2.1l2.8,4.6l2.9-3.6H176V0h10v6l-1.8,0l-6.2,9.7V21h3v6h-16v-6h3v-4.8L161.3,6H160"/>
</symbol><symbol id="icon-next" viewBox="0 0 24 24"><path d="M7.33 24l-2.83-2.829 9.339-9.175-9.339-9.167 2.83-2.829 12.17 11.996z"/></symbol><symbol id="icon-odnoklas" viewBox="0 0 43.8 76.7">
<path d="M21.9,39.6c10.9-0.1,19.6-8.9,19.5-19.8C41.5,9,32.8,0.1,21.9,0C11.1,0.1,2.3,9,2.4,19.8
	C2.3,30.7,11.1,39.5,21.9,39.6z M21.9,11.6c4.5-0.1,8.3,3.6,8.3,8.1c0.1,4.5-3.6,8.3-8.1,8.3c-4.5,0.1-8.3-3.6-8.3-8.1v-0.1
	C13.8,15.3,17.4,11.6,21.9,11.6L21.9,11.6z M29.8,55.8c4-0.9,7.9-2.5,11.3-4.8c2.7-1.7,3.5-5.3,1.8-8c-1.6-2.7-5.1-3.5-7.8-1.9
	c0,0-0.1,0-0.1,0.1c-8,5.1-18.3,5.1-26.3,0c-2.6-1.7-6.1-0.9-7.8,1.7c0,0,0,0.1-0.1,0.1c-1.7,2.7-0.9,6.3,1.8,8
	c3.5,2.2,7.3,3.8,11.3,4.8l-10.8,11c-2.2,2.3-2.2,5.9,0,8.2c2.2,2.2,5.8,2.3,8,0.1l0.1-0.1l10.7-10.9L32.6,75c2.2,2.2,5.8,2.3,8,0.1
	l0.1-0.1c2.2-2.3,2.2-5.9,0-8.2L29.8,55.8z"/>
</symbol><symbol id="icon-search" viewBox="0 0 512 512">
  <g>
    <g>
      <path d="m304.7,10.9c-108.5,0-196.4,87.9-196.4,196.4 0,46.9 16.4,89.9 43.8,123.7l-135,135c-8,8-8,20.9 0,28.9 8,8 20.9,8 28.9,0l135-135c33.8,27.4 76.8,43.8 123.7,43.8 108.5,0 196.4-87.9 196.4-196.4s-88-196.4-196.4-196.4zm0,352c-85.9,0-155.6-69.7-155.6-155.6 0-85.9 69.7-155.6 155.6-155.6 85.9,0 155.6,69.7 155.6,155.6 5.68434e-14,85.9-69.7,155.6-155.6,155.6z"/>
    </g>
  </g>
</symbol><symbol id="icon-twitter" viewBox="0 0 50 50">
<g id="surface1">
<path d="M 50.0625 10.4375 C 48.214844 11.257813 46.234375 11.808594 44.152344 12.058594 C 46.277344 10.785156 47.910156 8.769531 48.675781 6.371094 C 46.691406 7.546875 44.484375 8.402344 42.144531 8.863281 C 40.269531 6.863281 37.597656 5.617188 34.640625 5.617188 C 28.960938 5.617188 24.355469 10.21875 24.355469 15.898438 C 24.355469 16.703125 24.449219 17.488281 24.625 18.242188 C 16.078125 17.8125 8.503906 13.71875 3.429688 7.496094 C 2.542969 9.019531 2.039063 10.785156 2.039063 12.667969 C 2.039063 16.234375 3.851563 19.382813 6.613281 21.230469 C 4.925781 21.175781 3.339844 20.710938 1.953125 19.941406 C 1.953125 19.984375 1.953125 20.027344 1.953125 20.070313 C 1.953125 25.054688 5.5 29.207031 10.199219 30.15625 C 9.339844 30.390625 8.429688 30.515625 7.492188 30.515625 C 6.828125 30.515625 6.183594 30.453125 5.554688 30.328125 C 6.867188 34.410156 10.664063 37.390625 15.160156 37.472656 C 11.644531 40.230469 7.210938 41.871094 2.390625 41.871094 C 1.558594 41.871094 0.742188 41.824219 -0.0585938 41.726563 C 4.488281 44.648438 9.894531 46.347656 15.703125 46.347656 C 34.617188 46.347656 44.960938 30.679688 44.960938 17.09375 C 44.960938 16.648438 44.949219 16.199219 44.933594 15.761719 C 46.941406 14.3125 48.683594 12.5 50.0625 10.4375 Z "/>
</g>
</symbol><symbol id="icon-vk" viewBox="0 0 283.969 161.813">
  <metadata><?xpacket begin="﻿" id="W5M0MpCehiHzreSzNTczkc9d"?>
<x:xmpmeta xmlns:x="adobe:ns:meta/" x:xmptk="Adobe XMP Core 5.6-c142 79.160924, 2017/07/13-01:06:39        ">
   <rdf:RDF xmlns:rdf="http://www.w3.org/1999/02/22-rdf-syntax-ns#">
      <rdf:Description rdf:about=""/>
   </rdf:RDF>
</x:xmpmeta>
                                                                                                    
                                                                                                    
                                                                                                    
                                                                                                    
                                                                                                    
                                                                                                    
                                                                                                    
                                                                                                    
                                                                                                    
                                                                                                    
                                                                                                    
                                                                                                    
                                                                                                    
                                                                                                    
                                                                                                    
                                                                                                    
                                                                                                    
                                                                                                    
                                                                                                    
                                                                                                    
                           
<?xpacket end="w"?></metadata>

  <path id="Shape_F_3_copy_3" data-name="Shape F_3 copy 3" class="cls-1" d="M139.041,161.777h16.973s5.125-.566,7.747-3.386c2.408-2.591,2.331-7.457,2.331-7.457s-0.331-23.025,10.238-26.378c10.422-3.308,23.8,22.012,37.986,31.748,10.726,7.363,18.875,5.471,18.875,5.471l37.926,0.033s19.837-1.506,10.43-17.1c-0.769-1.274-5.479-11.538-28.2-32.626-23.781-22.072-20.594-18.5,8.051-56.679,17.446-23.252,24.419-37.446,22.24-43.526-2.077-5.791-14.814-4.793-14.814-4.793l-42.793-.017a10.333,10.333,0,0,0-5.515,1.1c-2.294,1.373-3.768,4.936-3.768,4.936s-6.76,18.324-15.772,33.628c-19.013,32.285-26.617,33.995-29.725,31.986-7.232-4.674-5.424-18.769-5.424-28.786,0-31.29,4.746-44.336-9.243-47.713-4.639-1.12-8.058-1.861-19.929-1.982-15.238-.156-28.132.046-35.433,3.623-4.858,2.38-8.606,7.68-6.322,7.985,2.824,0.377,9.213,1.725,12.6,6.336,4.377,5.955,4.223,19.322,4.223,19.322s2.516,36.834-5.872,41.408c-5.755,3.138-13.65-3.269-30.6-32.56a264.263,264.263,0,0,1-15.243-31.9,12.674,12.674,0,0,0-3.52-4.757,17.635,17.635,0,0,0-6.558-2.647L9.351,7.049s-6.09.17-8.328,2.82C-0.967,12.227.864,17.1,0.864,17.1S32.63,91.982,68.6,129.436C101.588,163.78,139.041,161.777,139.041,161.777Z" transform="translate(-0.094 -0.188)"/>
</symbol><symbol id="icon-zayac" viewBox="0 0 29.5 45">
<style type="text/css">
	.st0{fill:#FFFFFF;}
</style>
<path id="zayac_copy" class="st0" d="M29.5,0.4c0,0.4,0,0.8-0.1,1.2c0,0.3-0.1,0.7-0.1,1c-0.2,2.3-0.3,4.8-0.7,7.1
	c-0.6,4.5-2,8.6-5.4,11.7c-0.4,0.3-0.4,0.8-0.2,1.1c0,0,0.1,0.1,0.1,0.1c1.1,1.3,1.8,2.8,2.1,4.5c0.4,3.1,0.1,6.2-0.9,9.1
	c-0.2,0.5-0.6,0.9-1.1,1.1c-2.3,1-4.7,1.9-7.1,2.8v-2.6c-1.7,0.8-3.4,1.6-5.1,2.4c-0.2-0.7-0.4-1.4-0.4-2.2c0.1-0.7,0.2-1.5,0.5-2.2
	c-0.4-0.1-0.9-0.3-1.4-0.5c-1.7-0.5-3.3-1.4-4.7-2.7c-1.1-0.9-1.7-2.3-1.5-3.8c0.2-1.8,1.1-3.5,2.5-4.8c2.3-2.1,5.3-3.4,8.4-3.6
	c0.2-0.1,0.5-0.1,0.7-0.2c-0.2-0.2-0.3-0.4-0.6-0.6c-0.9-0.4-1.8-0.8-2.7-1.2C6.4,15.7,2.3,10.8,0.7,4.8C0.4,3.7,0.2,2.5,0.1,1.3
	C0,0.9,0,0.4,0,0c1.3,0.9,2.6,1.8,3.9,2.7C5,3.5,6.2,4.2,7.3,5.1c3.1,2.8,5.8,5.9,8.1,9.3c1.1,1.5,2.1,3,3.2,4.6
	c0.3,0.4,0.6,0.7,1,1c0.1-0.1,0.2-0.1,0.2-0.1l0.2-3.3C20.3,9.5,24,4.4,29.5,0.4L29.5,0.4z M10.4,27.7c1,0,1.9-0.8,1.9-1.9
	c0,0,0,0,0-0.1c0-1-0.8-1.9-1.9-1.9c-1,0-1.9,0.8-1.9,1.9c-0.1,1,0.7,1.8,1.7,1.9C10.3,27.7,10.3,27.7,10.4,27.7z M14.8,39.4V45
	c-0.7-0.6-1.4-1.2-2.1-1.9c-0.6-0.8-1.8-1-2.6-0.4c0,0-0.1,0-0.1,0.1c-0.6,0.3-1.2,0.6-1.8,0.8c-0.2-1.5-0.3-2.9-0.5-4.5
	c1.1,0.6,2,1.1,2.9,1.5c0.7,0.4,1.5,0.4,2.1-0.1C13.3,40.2,14,39.9,14.8,39.4L14.8,39.4L14.8,39.4z M23.9,39.1
	c-0.1,0.7-0.2,1.1-0.4,1.6c-0.1,0.2-0.2,0.3-0.4,0.4c-2.4,0.6-4.7,1.2-7.1,1.8c-0.2-1.3-0.2-1.4,0.9-1.7
	C19.3,40.6,21.5,39.9,23.9,39.1L23.9,39.1L23.9,39.1z"/>
</symbol></svg>